HIERARCHY
ROOT pelvis
{
  OFFSET 0 100 0
  CHANNELS 6 Xposition Yposition Zposition Zrotation Xrotation Yrotation
  JOINT pelvis_right_femur
  {
    OFFSET -10.78128 -3.44521 -0.5502486
    CHANNELS 3 Zrotation Xrotation Yrotation
    JOINT right_femur_tibia
    {
      OFFSET -0.8047443 -44.0398 -0.1307829
      CHANNELS 3 Zrotation Xrotation Yrotation
      JOINT right_tibia_foot
      {
        OFFSET 3.006224 -47.83518 -5
        CHANNELS 3 Zrotation Xrotation Yrotation
        End Site
        {
          OFFSET 0 -5 15
        }
      }
    }
  }
  JOINT pelvis_left_femur
  {
    OFFSET 10.78128 -3.44521 -0.5502486
    CHANNELS 3 Zrotation Xrotation Yrotation
    JOINT left_femur_tibia
    {
      OFFSET 0.8047443 -44.0398 -0.1307829
      CHANNELS 3 Zrotation Xrotation Yrotation
      JOINT left_tibia_foot
      {
        OFFSET -4.370144 -48.10324 -4.275266
        CHANNELS 3 Zrotation Xrotation Yrotation
        End Site
        {
          OFFSET 0 -5 15
        }
      }
    }
  }
  JOINT pelvis_spine1
  {
    OFFSET 0 6.468898 -3.129235
    CHANNELS 3 Zrotation Xrotation Yrotation
    JOINT spine1
    {
      OFFSET 0 23.15396 4.99043
      CHANNELS 3 Zrotation Xrotation Yrotation
      JOINT spine2
      {
        OFFSET 0 20.79997 -5.064912
        CHANNELS 3 Zrotation Xrotation Yrotation
        JOINT neck
        {
          OFFSET 0 14.38658 9.616178
          CHANNELS 3 Zrotation Xrotation Yrotation
          End Site
          {
            OFFSET 0 20 0
          }
        }
      }
      JOINT right_manubrium
      {
        OFFSET -5.722621 16.35077 3.967754
        CHANNELS 3 Zrotation Xrotation Yrotation
        JOINT right_clavicle
        {
          OFFSET -13.16364 1.694482 -4.693211
          CHANNELS 3 Zrotation Xrotation Yrotation
          JOINT right_humerus
          {
            OFFSET -28.5034 -0.3100689 -2.792744
            CHANNELS 3 Zrotation Xrotation Yrotation
            JOINT right_radius
            {
              OFFSET -25.15693 0.02248979 -1.271978
              CHANNELS 3 Zrotation Xrotation Yrotation
              End Site
              {
                OFFSET -15 0 0
              }
            }
          }
        }
      }
      JOINT left_manubrium
      {
        OFFSET 5.722621 16.35077 3.967754
        CHANNELS 3 Zrotation Xrotation Yrotation
        JOINT left_clavicle
        {
          OFFSET 13.16364 1.694482 -4.693211
          CHANNELS 3 Zrotation Xrotation Yrotation
          JOINT left_humerus
          {
            OFFSET 29.39168 -1.063119 -2.237045
            CHANNELS 3 Zrotation Xrotation Yrotation
            JOINT left_radius
            {
              OFFSET 24.59957 -0.9528479 0.9047498
              CHANNELS 3 Zrotation Xrotation Yrotation
              End Site
              {
                OFFSET 15 -0 -0
              }
            }
          }
        }
      }
    }
  }
}
MOTION
Frames: 19
Frame Time: 0.0416666666667
0 103.5113 0 2.187429 -1.150661 0.2681753 1.216246 -10.12072 8.670803 -0 33.93597 -0 -5.269674 -17.83994 -2.229831 -8.044118 10.07968 -23.46008 -0 5.183413 -0 7.663205 -16.17939 26.52988 -4.352175 -5.046186 4.972825 2.035302 9.201718 -7.735427 0.8462795 22.78754 7.169477 3.265523 -23.11359 8.800462 6.36373 -19.74466 11.57057 86.31603 35.94601 -19.80015 -0 0 16.2385 -7.582513 8.249303 4.621897 5.522209 -19.4811 -1.703337 -94.77972 29.75322 22.88286 0 0 -16.02919 3.497201 17.89675 9.560159
0.359606 103.4898 1.403314 2.057454 -0.9368809 0.4340508 1.412312 -11.13048 8.445895 -0 32.46975 -0 -5.315936 -17.2072 -1.993556 -7.934028 10.18704 -23.24934 -0 5.339895 -0 7.496222 -16.49252 26.26114 -4.316665 -4.848908 4.957595 2.144327 9.146441 -7.735955 0.8924778 22.63843 7.175508 3.318277 -23.26545 8.815399 6.325079 -19.65524 11.55918 86.32052 35.92388 -19.86694 -0 0 16.10543 -7.631506 8.294411 4.652456 5.638211 -19.5326 -1.715766 -94.67289 29.72385 22.64799 0 0 -16.3748 3.542733 17.79585 9.52993
0.7501139 103.3916 2.942491 1.890888 -0.6151669 0.5353189 1.647329 -12.49807 8.098248 -0 30.01033 -0 -5.374237 -16.26275 -1.574321 -7.80248 10.32307 -22.92266 -0 5.615904 -0 7.243966 -16.92583 25.84849 -4.278222 -4.582786 4.955514 2.298973 9.063178 -7.725533 0.963035 22.42008 7.179468 3.396909 -23.4754 8.831943 6.259451 -19.51338 11.54177 86.34037 35.89206 -19.97221 -0 0 15.89751 -7.702039 8.362421 4.694874 5.817059 -19.61651 -1.726632 -94.51335 29.67658 22.29278 0 0 -16.88665 3.607632 17.65131 9.47335
1.178279 103.1954 4.669025 1.708045 -0.1927105 0.5740828 1.888283 -14.07767 7.639437 -0 26.59281 -0 -5.447374 -15.05942 -0.9772117 -7.665583 10.47721 -22.47653 -0 6.065213 -0 6.892678 -17.42835 25.27552 -4.235534 -4.277156 4.967097 2.482551 8.9551 -7.704814 1.051546 22.14901 7.180875 3.496186 -23.72489 8.845437 6.16586 -19.3181 11.51526 86.38905 35.85191 -20.11767 -0 0 15.61175 -7.792579 8.454663 4.748558 6.042909 -19.73032 -1.732898 -94.3048 29.60788 21.83658 0 0 -17.52303 3.685494 17.46571 9.395396
1.645044 102.8962 6.640108 1.531562 0.3171811 0.5732071 2.105684 -15.66722 7.090827 -0 22.37846 -0 -5.541819 -13.68728 -0.2361297 -7.537301 10.64142 -21.90524 -0 6.780058 -0 6.414166 -17.92091 24.51015 -4.178279 -3.972297 4.98363 2.668494 8.827365 -7.680283 1.145757 21.85248 7.181026 3.606961 -23.98844 8.849421 6.045375 -19.06896 11.47357 86.48702 35.80548 -20.30585 -0 0 15.24324 -7.902185 8.574339 4.814329 6.284481 -19.8667 -1.732579 -94.05193 29.51247 21.31405 0 0 -18.2116 3.766106 17.23919 9.310537
2.145812 102.5065 8.916879 1.379217 0.8956111 0.5730266 2.280083 -17.06307 6.478013 -0 17.59585 -0 -5.664739 -12.24752 0.6025764 -7.42666 10.80264 -21.20684 -0 7.861518 -0 5.779736 -18.31249 23.52302 -4.092421 -3.706345 4.994471 2.830713 8.686237 -7.659678 1.232289 21.55876 7.181304 3.718966 -24.24052 8.83692 5.901326 -18.76732 11.41215 86.65202 35.75489 -20.53691 -0 0 14.78956 -8.03073 8.724673 4.893733 6.506905 -20.01523 -1.725407 -93.76206 29.38507 20.76527 0 0 -18.8752 3.838925 16.97171 9.235499
2.673059 102.0538 11.55601 1.254358 1.511997 0.6157065 2.409699 -18.09598 5.833999 -0 12.54008 -0 -5.826483 -10.8408 1.485831 -7.330974 10.92455 -20.39216 -0 9.413284 -0 4.970263 -18.49744 22.30594 -3.961771 -3.502326 4.994389 2.953886 8.539718 -7.647538 1.299733 21.28906 7.181432 3.822337 -24.46023 8.800465 5.741404 -18.41885 11.33439 86.88746 35.70238 -20.80331 -0 0 14.25661 -8.180233 8.907572 4.989166 6.679129 -20.16056 -1.714732 -93.45046 29.22105 20.23238 0 0 -19.45079 3.895478 16.66514 9.184124
3.217961 101.5842 14.59999 1.143985 2.114138 0.7256624 2.512418 -18.58305 5.210592 -0 7.641388 -0 -6.045066 -9.590943 2.343966 -7.230199 10.92432 -19.48596 -0 11.60047 -0 3.967964 -18.31363 20.86798 -3.761255 -3.370505 4.985448 3.032772 8.399668 -7.644475 1.335863 21.06042 7.178707 3.905362 -24.62642 8.728603 5.580069 -18.03303 11.25493 87.1812 35.65182 -21.08741 -0 0 13.65806 -8.357357 9.125394 5.105497 6.766087 -20.2765 -1.709306 -93.14573 29.01437 19.76976 0 0 -19.87738 3.927123 16.32215 9.170388
3.77083 101.1659 18.07155 1.027946 2.633965 0.8970639 2.618115 -18.32343 4.672062 -0 3.411718 -0 -6.339391 -8.639182 3.097482 -7.091833 10.68236 -18.52089 -0 14.63529 -0 2.766246 -17.55941 19.23891 -3.461152 -3.312913 4.97607 3.06778 8.280955 -7.647477 1.32782 20.88835 7.168515 3.955088 -24.71622 8.60668 5.43585 -17.62229 11.19566 87.51026 35.60879 -21.36325 -0 0 13.01293 -8.572983 9.381133 5.250007 6.729895 -20.33017 -1.720956 -92.88401 28.75814 19.43945 0 0 -20.09484 3.925076 15.94553 9.208326
4.322462 100.8798 21.97322 0.8994318 3.011567 1.098178 2.744177 -17.18764 4.260284 -0 0.1922807 -0 -6.70993 -8.085307 3.693791 -6.892983 10.08302 -17.52657 -0 18.6356 -0 1.407319 -16.11331 17.49177 -3.053247 -3.320376 4.98301 3.06104 8.197202 -7.647066 1.269696 20.78472 7.145309 3.96371 -24.7114 8.424417 5.322377 -17.20415 11.17531 87.84358 35.57825 -21.59727 -0 0 12.34767 -8.839404 9.675037 5.430473 6.552033 -20.3015 -1.756146 -92.68862 28.44918 19.2802 0 0 -20.07514 3.885959 15.53962 9.302981
4.867031 100.7955 26.28206 0.7840372 3.195401 1.284741 2.868728 -15.14235 3.972015 0 -2.00161 0 -7.125645 -7.966947 4.130012 -6.64054 8.992097 -16.52473 -0 23.5485 -0 0.002025348 -14.01646 15.76059 -2.576415 -3.364061 5.043424 3.012191 8.162359 -7.617888 1.168216 20.7616 7.100614 3.932238 -24.59531 8.178107 5.244511 -16.80991 11.20716 88.13061 35.56486 -21.73192 -0 0 11.70791 -9.175409 10.00284 5.658064 6.249333 -20.19645 -1.809097 -92.55704 28.08878 19.28937 0 0 -19.84547 3.815585 15.11158 9.443268
5.404979 100.9465 30.93705 0.7441068 3.126126 1.412058 2.925106 -12.2026 3.766582 0 -3.446357 0 -7.523887 -8.284753 4.448599 -6.372639 7.206572 -15.53204 -0 29.17877 -0 -1.290082 -11.46767 14.22877 -2.121833 -3.39128 5.223604 2.915728 8.195022 -7.512276 1.042265 20.83739 7.020612 3.869228 -24.34463 7.867164 5.200676 -16.49117 11.30347 88.28939 35.57513 -21.66945 -0 0 11.16793 -9.613534 10.35654 5.95188 5.872016 -20.04554 -1.861471 -92.46293 27.68013 19.42894 0 0 -19.48505 3.727952 14.6713 9.602517
5.941876 101.3238 35.83858 0.8468842 2.755908 1.445083 2.8407 -8.421575 3.599154 0 -4.523632 0 -7.834655 -9.014675 4.709642 -6.129668 4.531367 -14.56149 -0 35.24094 -0 -2.331316 -8.735233 13.05768 -1.79221 -3.346981 5.589157 2.764687 8.310921 -7.28109 0.914373 21.02825 6.892038 3.786534 -23.93854 7.49488 5.184567 -16.30281 11.47198 88.23353 35.61403 -21.30624 -0 0 10.80816 -10.18892 10.72571 6.332632 5.48107 -19.88669 -1.891838 -92.37271 27.22772 19.64901 0 0 -19.08773 3.638585 14.22895 9.750655
6.483855 101.8869 40.87033 1.118833 2.090489 1.36639 2.584544 -3.920572 3.449229 0 -5.514889 0 -8.008548 -10.10117 4.960262 -5.918848 0.9188908 -13.61724 -0 41.33083 -0 -3.061877 -6.058735 12.32793 -1.646678 -3.207511 6.157433 2.556544 8.507972 -6.907039 0.8004632 21.33056 6.712347 3.694372 -23.37696 7.073536 5.182341 -16.2805 11.70495 87.90925 35.67746 -20.58086 -0 0 10.68783 -10.9237 11.09797 6.813314 5.12443 -19.74352 -1.886334 -92.26445 26.73853 19.91295 0 0 -18.717 3.55653 13.79163 9.869547
7.0357 102.5666 45.92923 1.532394 1.2084 1.179779 2.172866 1.090329 3.314932 0 -6.560577 0 -8.013438 -11.45056 5.230425 -5.704959 -3.497808 -12.68321 -0 46.76668 -0 -3.481673 -3.652829 12.06688 -1.68957 -2.992043 6.880548 2.293991 8.759012 -6.415572 0.7080296 21.71276 6.493538 3.599038 -22.68505 6.628479 5.165384 -16.44485 11.97137 87.28889 35.74803 -19.4678 -0 0 10.85792 -11.83283 11.45724 7.402225 4.838731 -19.61824 -1.83855 -92.13152 26.22287 20.20358 0 0 -18.39709 3.48201 13.36222 9.956712
7.603093 103.2619 50.94922 2.023206 0.242511 0.9071648 1.650327 6.335727 3.196205 0 -7.703453 0 -7.824513 -12.94097 5.539911 -5.422683 -8.459823 -11.71843 -0 50.61445 -0 -3.615589 -1.723295 12.28426 -1.88707 -2.749999 7.663498 1.983801 9.018565 -5.862917 0.6386517 22.12217 6.258324 3.502822 -21.9053 6.194949 5.092323 -16.81026 12.22178 86.35776 35.79646 -17.95956 -0 0 11.37178 -12.93038 11.78371 8.106443 4.655328 -19.49719 -1.746274 -91.97761 25.69349 20.5174 0 0 -18.1248 3.408697 12.94034 10.02091
8.19618 103.8506 55.90731 2.524933 -0.6822195 0.5779423 1.065264 11.55976 3.092883 0 -8.914143 0 -7.43195 -14.45759 5.898642 -5.010071 -13.6781 -10.6782 -0 52.15059 -0 -3.49908 -0.3981812 12.95805 -2.191558 -2.531438 8.414655 1.63682 9.246253 -5.306223 0.5906593 22.50782 6.029475 3.405932 -21.08277 5.804393 4.932167 -17.37462 12.41254 85.13109 35.7898 -16.08202 -0 0 12.25274 -14.2156 12.05958 8.923604 4.588836 -19.36378 -1.613214 -91.81133 25.16303 20.85595 0 0 -17.88114 3.328053 12.52478 10.07559
8.831396 104.2214 60.8171 2.985094 -1.486185 0.2159199 0.4580528 16.56265 3.013455 0 -10.07377 0 -6.848846 -15.90557 6.302169 -4.44052 -18.8561 -9.545347 -0 51.19895 -0 -3.175716 0.3290915 14.00681 -2.554054 -2.371415 9.076938 1.26972 9.422475 -4.786017 0.5613856 22.83104 5.824821 3.309219 -20.26061 5.478223 4.684257 -18.1051 12.52271 83.67668 35.69927 -13.92025 -0 0 13.46227 -15.6579 12.27415 9.832314 4.623241 -19.20586 -1.453786 -91.64528 24.64413 21.22098 0 0 -17.62982 3.229297 12.11484 10.13886
9.53032 104.3119 65.72238 3.355493 -2.123467 -0.1733638 -0.1353479 21.16219 2.979613 0 -10.94355 0 -6.109404 -17.19018 6.727703 -3.742031 -23.63695 -8.353852 -0 48.0733 -0 -2.700729 0.5857856 15.28043 -2.921404 -2.295973 9.620792 0.9069596 9.54637 -4.330879 0.5483737 23.05737 5.660861 3.215542 -19.48761 5.233421 4.380262 -18.93434 12.55225 82.11927 35.50568 -11.62808 -0 0 14.89831 -17.19526 12.42507 10.7901 4.709289 -19.01398 -1.295983 -91.49798 24.1524 21.61402 0 0 -17.3082 3.095705 11.70978 10.23853
